<?xml version="1.0" encoding="iso-8859-1"?>
<!-- Generator: Adobe Illustrator 19.0.0, SVG Export Plug-In . SVG Version: 6.00 Build 0)  -->
<svg version="1.1" id="Capa_1" xmlns="http://www.w3.org/2000/svg" xmlns:xlink="http://www.w3.org/1999/xlink" x="0px" y="0px"
	 viewBox="0 0 512 512" style="enable-background:new 0 0 512 512;" xml:space="preserve">
<g>
	<path style="fill:#B8B8B8;" d="M111.276,454.613v38.095c0,10.654,8.637,19.292,19.291,19.292h34.021
		c10.654,0,19.292-8.637,19.292-19.292v-38.095H111.276z"/>
	<path style="fill:#B8B8B8;" d="M400.724,454.613v38.095c0,10.654-8.637,19.292-19.292,19.292h-34.021
		c-10.654,0-19.291-8.637-19.291-19.292v-38.095H400.724z"/>
</g>
<path style="fill:#EFEDEE;" d="M400.724,0H111.276c-24.057,0-43.55,19.493-43.55,43.54v158.747L256,235.592l188.274-33.306V43.54
	C444.274,19.493,424.781,0,400.724,0z"/>
<path style="fill:#D2D2D2;" d="M444.274,202.286v229.392c0,24.047-19.493,43.54-43.55,43.54H111.276
	c-24.057,0-43.55-19.493-43.55-43.54V202.286H444.274z"/>
<g>
	<path style="fill:#B8B8B8;" d="M132.077,37.45L132.077,37.45c-11.489,0-20.801,9.313-20.801,20.801v85.783
		c0,11.488,9.313,20.801,20.801,20.801l0,0c11.488,0,20.801-9.313,20.801-20.801V58.252C152.878,46.763,143.565,37.45,132.077,37.45
		z"/>
	<path style="fill:#B8B8B8;" d="M132.077,233.848L132.077,233.848c-11.489,0-20.801,9.313-20.801,20.801v157.903
		c0,11.488,9.313,20.801,20.801,20.801l0,0c11.488,0,20.801-9.313,20.801-20.801V254.649
		C152.878,243.161,143.565,233.848,132.077,233.848z"/>
</g>
<g>
	<path style="fill:#3A484A;" d="M199.93,117.037c-4.267,0-7.726-3.459-7.726-7.726V92.679c0-4.267,3.459-7.726,7.726-7.726
		s7.726,3.459,7.726,7.726v16.631C207.657,113.577,204.197,117.037,199.93,117.037z"/>
	<path style="fill:#3A484A;" d="M383.712,117.037c-4.268,0-7.726-3.459-7.726-7.726V92.679c0-4.267,3.458-7.726,7.726-7.726
		c4.268,0,7.726,3.459,7.726,7.726v16.631C391.438,113.577,387.98,117.037,383.712,117.037z"/>
	<path style="fill:#3A484A;" d="M291.82,125.913c-11.069,0-21.456-4.62-28.497-12.675c-2.809-3.213-2.481-8.094,0.732-10.902
		c3.211-2.808,8.093-2.481,10.901,0.732c4.106,4.699,10.253,7.393,16.863,7.393c6.61,0,12.757-2.695,16.863-7.393
		c2.807-3.213,7.69-3.541,10.901-0.732c3.213,2.808,3.542,7.689,0.732,10.902C313.276,121.292,302.89,125.913,291.82,125.913z"/>
</g>
<g>
</g>
<g>
</g>
<g>
</g>
<g>
</g>
<g>
</g>
<g>
</g>
<g>
</g>
<g>
</g>
<g>
</g>
<g>
</g>
<g>
</g>
<g>
</g>
<g>
</g>
<g>
</g>
<g>
</g>
</svg>
