<?xml version="1.0" encoding="UTF-8"?>
<svg width="36px" height="36px" viewBox="0 0 36 36" version="1.1" xmlns="http://www.w3.org/2000/svg" xmlns:xlink="http://www.w3.org/1999/xlink">
    <!-- Generator: Sketch 50.2 (55047) - http://www.bohemiancoding.com/sketch -->
    <title>Group</title>
    <desc>Created with Sketch.</desc>
    <defs></defs>
    <g id="UI" stroke="none" stroke-width="1" fill="none" fill-rule="evenodd">
        <g id="items-around-me" transform="translate(-23.000000, -437.000000)">
            <g id="screen-content">
                <g id="public" transform="translate(7.000000, 76.000000)">
                    <g id="claim-button" transform="translate(6.500000, 350.500000)">
                        <g id="Dollar-3" transform="translate(9.000000, 0.000000)">
                            <g id="Group" transform="translate(0.000000, 10.000000)">
                                <circle id="Oval-2" stroke="#0b54ff" stroke-width="2.5" cx="18.5" cy="18.5" r="16.625"></circle>
                                <path d="M27.7735025,10.8863691 L27.700082,10.8863691 C27.4651533,10.8869689 27.2325243,10.9325678 27.0148238,11.02069 L24.9162208,11.7167168 C20.7595047,13.0164024 16.3038855,13.0164024 12.1471694,11.7167168 L10.042448,11.0145845 C9.82624734,10.9293144 9.59578209,10.8858046 9.36330822,10.8863691 L9.30212446,10.8863691 C7.03220686,10.8863691 5.38636364,12.4493766 5.38636364,14.5496679 C5.38636364,16.1554139 6.81806369,17.9687469 8.60462956,18.6647736 L8.7759441,18.7319341 L10.9907963,19.4706994 C12.1883112,19.8693005 13.4159177,20.1714727 14.6618221,20.3743131 C14.27014,20.4513717 13.9733069,20.7722641 13.9276169,21.1680279 C13.8847883,21.5282522 13.5849879,24.7275333 15.1941208,26.5225497 C15.737875,27.1273187 16.4796829,27.5190866 17.2866055,27.6276448 L17.2866055,34.6978116 C17.2866055,35.2036077 17.6974991,35.6136364 18.204362,35.6136364 C18.7112248,35.6136364 19.1221184,35.2036077 19.1221184,34.6978116 L19.1221184,27.5788009 C19.9340896,27.4708832 20.6806151,27.0767505 21.2268398,26.4676002 C22.8298544,24.6847948 22.5239356,21.5221467 22.481107,21.1680279 C22.4442379,20.8459246 22.2394641,20.5672754 21.9426899,20.4353681 C23.3393094,20.2369001 24.7153184,19.9140552 26.0542387,19.4706994 L28.269091,18.7319341 L28.4404055,18.6647736 C30.2269714,17.9748524 31.6586714,16.1615194 31.6586714,14.5496679 C31.6892633,12.4493766 30.0434201,10.923002 27.7735025,10.8863691 Z M20.676186,21.3695093 C20.7557249,22.0594306 20.77408,24.2451989 19.8746787,25.2465006 C19.6785737,25.4657206 19.4238745,25.6245725 19.1404735,25.7044129 L19.1404735,21.8762656 C19.1404735,21.3704696 18.72958,20.9604409 18.2227171,20.9604409 C17.7158542,20.9604409 17.3049606,21.3704696 17.3049606,21.8762656 L17.3049606,25.7532569 C17.0266834,25.6730276 16.7765472,25.5164928 16.5829922,25.3014501 C15.6774726,24.2940429 15.6897093,22.1204856 15.7692482,21.3695093 C15.8103856,20.9960386 15.6187615,20.6353816 15.2858965,20.4597901 C17.1880627,20.7230432 19.1153046,20.7537977 21.0249334,20.5513726 C20.773963,20.7449652 20.6418798,21.0548231 20.676186,21.3695093 L20.676186,21.3695093 Z M27.7123187,16.9918672 L27.7123187,16.9918672 L25.4974665,17.7306324 C20.9742275,19.2242627 16.0891626,19.2242627 11.5659237,17.7306324 L9.35718985,16.9918672 L9.35718985,16.9918672 C8.09068596,16.5522713 7.2279949,15.2640112 7.2279949,14.5496679 C7.2279949,13.3713068 8.1824616,12.7180185 9.35718985,12.7180185 L9.35718985,12.7180185 L11.5659237,13.4506783 C16.1021304,14.8753462 20.9673782,14.8753462 25.5035849,13.4506783 L27.7123187,12.7180185 L27.7123187,12.7180185 C28.8931653,12.7180185 29.8415137,13.3713068 29.8415137,14.5496679 C29.8537504,15.2579057 28.9788226,16.5461658 27.7123187,16.9918672 Z" id="Shape" fill="#0b54ff"></path>
                            </g>
                        </g>
                    </g>
                </g>
            </g>
        </g>
    </g>
</svg>