<?xml version="1.0" encoding="iso-8859-1"?>
<!-- Generator: Adobe Illustrator 16.0.0, SVG Export Plug-In . SVG Version: 6.00 Build 0)  -->
<!DOCTYPE svg PUBLIC "-//W3C//DTD SVG 1.1//EN" "http://www.w3.org/Graphics/SVG/1.1/DTD/svg11.dtd">
<svg version="1.1" id="Capa_1" xmlns="http://www.w3.org/2000/svg" xmlns:xlink="http://www.w3.org/1999/xlink" x="0px" y="0px"
	 width="36.289px" height="36.289px" viewBox="0 0 36.289 36.289" style="enable-background:new 0 0 36.289 36.289;"
	 xml:space="preserve">
<g>
	<path d="M34.427,12.595v-0.105c-0.012-2.465-0.209-4.973-1.592-6.61c-0.945-1.164-2.405-1.313-3.57-1.313
		c-0.477,0-0.951,0.029-1.41,0.057c-0.403,0.023-0.793,0.048-1.149,0.048h-0.164c-0.336-0.071-0.678-0.108-1.031-0.146
		c-0.317-0.035-0.645-0.068-0.99-0.137c-0.38-0.072-0.778-0.447-1.163-0.812c-0.226-0.211-0.443-0.414-0.666-0.573
		c-0.214-0.147-0.428-0.306-0.646-0.464c-0.67-0.489-1.36-0.993-2.15-1.346c-0.965-0.416-2.035-0.553-3.07-0.687
		c-0.504-0.063-1.006-0.127-1.533-0.231c-0.262-0.024-0.53-0.055-0.803-0.086C13.674,0.097,12.833,0,11.996,0
		c-0.569,0-1.069,0.045-1.571,0.146C8.806,0.61,7.753,1.952,7.751,3.495C6.91,3.834,6.156,4.534,5.682,5.435
		C5.257,6.239,5.116,7.101,5.268,7.862c-1.602,1.047-2.427,3.01-1.98,4.693c-0.707,0.485-1.194,1.299-1.363,2.289
		c-0.234,1.373,0.189,2.829,1.086,3.718c1.17,1.117,2.797,1.389,4.232,1.627c0.225,0.039,0.448,0.076,0.635,0.107
		c0.195,0.051,0.4,0.098,0.611,0.145c1.913,0.445,3.268,0.881,3.271,2.447c0.004,1.033-0.337,1.988-0.695,3
		c-0.413,1.16-0.84,2.361-0.771,3.762c0.129,2.49,1.188,4.66,2.807,5.785c0.682,0.541,1.543,0.854,2.365,0.854
		c1.221,0,2.133-0.664,2.502-1.816c0.264-0.787,0.22-1.545,0.174-2.348c-0.012-0.199-0.023-0.402-0.031-0.615
		c-0.045-1.102,0.086-2.016,0.413-2.889c0.606-1.717,1.838-3.324,2.846-4.539l0.543-0.686c0.768-0.969,1.559-1.971,2.438-2.754
		c0.463-0.367,0.933-0.496,1.541-0.627c0.17-0.008,0.318-0.055,0.443-0.092c0.078-0.025,0.168-0.055,0.223-0.057
		c0.59,0.049,1.223,0.092,1.877,0.092c1.271,0,3.113-0.146,4.402-1.389C34.455,17.133,34.438,14.4,34.427,12.595z M27.917,12.773
		l-0.002,0.293c-0.016,1.228-0.032,2.752-0.652,3.854c-0.32,0.537-0.94,0.653-1.654,0.789c-0.998,0.161-1.778,0.484-2.509,1.044
		c-0.101,0.035-0.209,0.108-0.296,0.265c-0.299,0.201-0.543,0.5-0.746,0.75c-1.201,1.301-2.286,2.637-3.141,3.867
		c-0.194,0.289-0.395,0.574-0.592,0.854c-0.906,1.297-1.844,2.637-2.244,4.291c-0.282,1.209-0.256,2.262-0.192,3.508l0.01,0.188
		c0.048,0.76,0.06,1.574-0.36,1.635c-0.035,0.006-0.071,0.008-0.106,0.008c-0.696,0-1.571-0.873-2.067-1.648
		c-0.563-1.064-0.848-2.145-0.818-3.119c0.029-1.014,0.359-1.973,0.709-2.99c0.412-1.197,0.841-2.439,0.742-3.799
		c-0.141-1.84-1.604-3.432-3.641-3.961c-0.596-0.156-1.225-0.26-1.834-0.356c-1.137-0.187-2.311-0.377-3.291-0.926
		c-0.604-0.301-1.27-0.961-1.15-1.838c0.056-0.465,0.271-1.045,1.033-1.188c0.34-0.099,0.598-0.326,0.723-0.644
		c0.15-0.383,0.095-0.856-0.205-1.34c-0.206-0.236-0.247-0.884-0.098-1.427c0.213-0.685,0.701-1.157,1.455-1.411
		c0.32-0.039,0.607-0.263,0.767-0.604c0.179-0.387,0.139-0.807-0.08-1.059c-0.24-0.343-0.2-1.027,0.094-1.597
		c0.231-0.448,0.563-0.72,0.888-0.72c0.045,0,0.092,0.007,0.137,0.017l0.052,0.011H8.9c0.396,0,0.911-0.176,1.167-0.568
		c0.169-0.258,0.192-0.573,0.075-0.84c-0.169-0.448-0.152-0.932,0.045-1.258c0.143-0.236,0.367-0.375,0.739-0.429
		c0.475-0.129,1.015-0.129,1.493-0.131c1.598,0.144,3.25,0.291,4.816,0.575c0,0,1.569,0.352,1.823,0.404
		c0.663,0.312,1.302,0.795,1.918,1.262c0.203,0.154,0.401,0.306,0.587,0.438c0.158,0.123,0.312,0.271,0.474,0.422
		c0.405,0.383,0.86,0.812,1.428,0.967c0.494,0.306,1.019,0.326,1.425,0.326c0.03,0,0.062,0,0.093,0
		c1.529,0.142,2.23,0.676,2.593,1.978C27.927,9.979,27.938,11.476,27.917,12.773z M31.287,16.941
		c-0.533,0.453-1.231,0.642-1.914,0.715c0.362-0.733,0.521-1.561,0.623-2.315c0.237-1.726,0.26-3.538,0.062-5.396
		c-0.115-1.018-0.302-2.141-0.775-3.104h0.092c0.84,0,1.457,0.037,1.771,0.519c0.914,1.324,1.032,3.248,1.022,5.131l0.002,0.482
		C32.182,14.246,32.199,16.179,31.287,16.941z"/>
</g>
<g>
</g>
<g>
</g>
<g>
</g>
<g>
</g>
<g>
</g>
<g>
</g>
<g>
</g>
<g>
</g>
<g>
</g>
<g>
</g>
<g>
</g>
<g>
</g>
<g>
</g>
<g>
</g>
<g>
</g>
</svg>
